<?xml version="1.0" encoding="UTF-8" standalone="no"?>
<!DOCTYPE svg PUBLIC "-//W3C//DTD SVG 1.1//EN"
 "http://www.w3.org/Graphics/SVG/1.1/DTD/svg11.dtd">
<!-- Generated by graphviz version 2.26.3 (20100126.1600)
 -->
<!-- Title: G Pages: 1 -->
<svg width="424pt" height="206pt"
 viewBox="0.00 0.00 424.00 206.00" xmlns="http://www.w3.org/2000/svg" xmlns:xlink="http://www.w3.org/1999/xlink">
<g id="graph1" class="graph" transform="scale(1 1) rotate(0) translate(4 202)">
<title>G</title>
<polygon fill="white" stroke="white" points="-4,5 -4,-202 421,-202 421,5 -4,5"/>
<g id="graph2" class="cluster"><title>cluster_global</title>
<polyline fill="none" stroke="gray" points="20,-8 396,-8 "/>
<path fill="none" stroke="gray" d="M396,-8C402,-8 408,-14 408,-20"/>
<polyline fill="none" stroke="gray" points="408,-20 408,-178 "/>
<path fill="none" stroke="gray" d="M408,-178C408,-184 402,-190 396,-190"/>
<polyline fill="none" stroke="gray" points="396,-190 20,-190 "/>
<path fill="none" stroke="gray" d="M20,-190C14,-190 8,-184 8,-178"/>
<polyline fill="none" stroke="gray" points="8,-178 8,-20 "/>
<path fill="none" stroke="gray" d="M8,-20C8,-14 14,-8 20,-8"/>
<text text-anchor="middle" x="208" y="-176.1" font-family="Times Roman,serif" font-size="11.00" fill="gray">global</text>
</g>
<!-- \\geo_app_soap_wrapper -->
<g id="node2" class="node"><title>\\geo_app_soap_wrapper</title>
<a xlink:href="geo_app_soap_wrapper.html" xlink:title="geo_app_soap_wrapper" target="_parent">
<polygon fill="none" stroke="black" points="393,-160 241,-160 241,-124 393,-124 393,-160"/>
<text text-anchor="middle" x="317" y="-139.1" font-family="Courier,monospace" font-size="11.00">geo_app_soap_wrapper</text>
</a>
</g>
<!-- \\geonames_data_provider -->
<g id="node3" class="node"><title>\\geonames_data_provider</title>
<a xlink:href="geonames_data_provider.html" xlink:title="geonames_data_provider" target="_parent">
<polygon fill="none" stroke="black" points="399,-106 235,-106 235,-70 399,-70 399,-106"/>
<text text-anchor="middle" x="317" y="-85.1" font-family="Courier,monospace" font-size="11.00">geonames_data_provider</text>
</a>
</g>
<!-- \\i_geo_data_provider -->
<g id="node5" class="node"><title>\\i_geo_data_provider</title>
<a xlink:href="i_geo_data_provider.html" xlink:title="i_geo_data_provider" target="_parent">
<polygon fill="none" stroke="black" points="161,-106 17,-106 17,-70 161,-70 161,-106"/>
<text text-anchor="middle" x="89" y="-85.1" font-family="Courier,monospace" font-size="11.00">i_geo_data_provider</text>
</a>
</g>
<!-- \\geonames_data_provider&#45;&gt;\\i_geo_data_provider -->
<g id="edge3" class="edge"><title>\\geonames_data_provider&#45;&gt;\\i_geo_data_provider</title>
<path fill="none" stroke="black" stroke-dasharray="1,5" d="M234.364,-88C213.977,-88 192.139,-88 171.747,-88"/>
<polygon fill="none" stroke="black" points="171.549,-84.5001 161.549,-88 171.549,-91.5001 171.549,-84.5001"/>
</g>
<!-- \\geo_app -->
<g id="node4" class="node"><title>\\geo_app</title>
<a xlink:href="geo_app.html" xlink:title="geo_app" target="_parent">
<polygon fill="none" stroke="black" points="349,-52 285,-52 285,-16 349,-16 349,-52"/>
<text text-anchor="middle" x="317" y="-31.1" font-family="Courier,monospace" font-size="11.00">geo_app</text>
</a>
</g>
</g>
</svg>
